<svg width="25" height="25" viewBox="0 0 25 25" fill="none" xmlns="http://www.w3.org/2000/svg">
<g clip-path="url(#clip0_658_2631)">
<path d="M24.27 12.353C24.27 5.72603 18.897 0.353027 12.27 0.353027C5.64302 0.353027 0.27002 5.72603 0.27002 12.353C0.27002 18.343 4.65802 23.307 10.395 24.207V15.822H7.34802V12.352H10.395V9.71003C10.395 6.70303 12.187 5.04103 14.928 5.04103C16.24 5.04103 17.614 5.27603 17.614 5.27603V8.22903H16.1C14.609 8.22903 14.144 9.15403 14.144 10.103V12.353H17.472L16.94 15.823H14.144V24.208C19.882 23.307 24.27 18.342 24.27 12.353Z" fill="#565656"/>
</g>
<defs>
<clipPath id="clip0_658_2631">
<rect width="24" height="24" fill="white" transform="translate(0.27002 0.280029)"/>
</clipPath>
</defs>
</svg>
