<svg width="25" height="25" viewBox="0 0 25 25" fill="none" xmlns="http://www.w3.org/2000/svg">
<path d="M12.27 8.78503C10.335 8.78503 8.77502 10.36 8.77502 12.28C8.77502 14.2 10.35 15.775 12.27 15.775C14.19 15.775 15.765 14.2 15.765 12.28C15.765 10.36 14.19 8.78503 12.27 8.78503ZM22.77 12.28C22.77 10.825 22.77 9.40003 22.695 7.94503C22.62 6.26503 22.23 4.76503 21 3.55003C19.77 2.32003 18.285 1.93003 16.605 1.85503C15.15 1.78003 13.725 1.78003 12.27 1.78003C10.815 1.78003 9.39002 1.78003 7.93502 1.85503C6.25502 1.93003 4.75502 2.32003 3.54002 3.55003C2.31002 4.78003 1.92002 6.26503 1.84502 7.94503C1.77002 9.40003 1.77002 10.825 1.77002 12.28C1.77002 13.735 1.77002 15.16 1.84502 16.615C1.92002 18.295 2.31002 19.795 3.54002 21.01C4.77002 22.24 6.25502 22.63 7.93502 22.705C9.39002 22.78 10.815 22.78 12.27 22.78C13.725 22.78 15.15 22.78 16.605 22.705C18.285 22.63 19.785 22.24 21 21.01C22.23 19.78 22.62 18.295 22.695 16.615C22.785 15.175 22.77 13.735 22.77 12.28ZM12.27 17.665C9.28502 17.665 6.88502 15.265 6.88502 12.28C6.88502 9.29503 9.28502 6.89503 12.27 6.89503C15.255 6.89503 17.655 9.29503 17.655 12.28C17.655 15.265 15.255 17.665 12.27 17.665ZM17.88 7.93003C17.19 7.93003 16.62 7.37503 16.62 6.67003C16.62 5.96503 17.175 5.41003 17.88 5.41003C18.585 5.41003 19.14 5.96503 19.14 6.67003C19.1438 6.83433 19.1138 6.99767 19.0519 7.1499C18.99 7.30214 18.8974 7.44003 18.78 7.55503C18.665 7.67244 18.5271 7.76498 18.3749 7.8269C18.2227 7.88883 18.0593 7.91883 17.895 7.91503L17.88 7.93003Z" fill="#565656"/>
</svg>
