<svg width="25" height="25" viewBox="0 0 25 25" fill="none" xmlns="http://www.w3.org/2000/svg">
<path d="M20.7401 2.27992H3.80008C3.60966 2.27728 3.42058 2.31217 3.24364 2.38261C3.06671 2.45305 2.90538 2.55765 2.76888 2.69044C2.63237 2.82323 2.52336 2.98161 2.44807 3.15653C2.37278 3.33146 2.33269 3.5195 2.33008 3.70992V20.8499C2.33269 21.0403 2.37278 21.2284 2.44807 21.4033C2.52336 21.5782 2.63237 21.7366 2.76888 21.8694C2.90538 22.0022 3.06671 22.1068 3.24364 22.1772C3.42058 22.2477 3.60966 22.2826 3.80008 22.2799H20.7401C20.9305 22.2826 21.1196 22.2477 21.2965 22.1772C21.4734 22.1068 21.6348 22.0022 21.7713 21.8694C21.9078 21.7366 22.0168 21.5782 22.0921 21.4033C22.1674 21.2284 22.2075 21.0403 22.2101 20.8499V3.70992C22.2075 3.5195 22.1674 3.33146 22.0921 3.15653C22.0168 2.98161 21.9078 2.82323 21.7713 2.69044C21.6348 2.55765 21.4734 2.45305 21.2965 2.38261C21.1196 2.31217 20.9305 2.27728 20.7401 2.27992ZM8.36008 19.0199H5.36008V10.0199H8.36008V19.0199ZM6.86008 8.75992C6.44634 8.75992 6.04955 8.59557 5.75699 8.30301C5.46443 8.01045 5.30008 7.61366 5.30008 7.19992C5.30008 6.78619 5.46443 6.38939 5.75699 6.09684C6.04955 5.80428 6.44634 5.63992 6.86008 5.63992C7.07977 5.61501 7.30225 5.63678 7.51295 5.70381C7.72365 5.77084 7.91782 5.88161 8.08274 6.02889C8.24765 6.17616 8.3796 6.3566 8.46995 6.55841C8.56029 6.76021 8.607 6.97882 8.607 7.19992C8.607 7.42103 8.56029 7.63964 8.46995 7.84144C8.3796 8.04325 8.24765 8.22369 8.08274 8.37096C7.91782 8.51823 7.72365 8.62901 7.51295 8.69604C7.30225 8.76307 7.07977 8.78484 6.86008 8.75992ZM19.1801 19.0199H16.1801V14.1899C16.1801 12.9799 15.7501 12.1899 14.6601 12.1899C14.3227 12.1924 13.9943 12.2982 13.7189 12.4931C13.4436 12.688 13.2346 12.9626 13.1201 13.2799C13.0418 13.515 13.0079 13.7625 13.0201 14.0099V19.0099H10.0201V10.0099H13.0201V11.2799C13.2926 10.807 13.689 10.4174 14.1665 10.1531C14.6441 9.88881 15.1846 9.75978 15.7301 9.77992C17.7301 9.77992 19.1801 11.0699 19.1801 13.8399V19.0199Z" fill="#565656"/>
</svg>
